<svg   version="1.1" viewBox="0 0 121.71 121.2" xmlns="http://www.w3.org/2000/svg">
 <g transform="translate(-357.52 -17.875)">
  <g transform="translate(-146.7 -642.77)">
   <path d="m582.23 701.25v77.958h15v-77.958z" color="#000000" fill="#0b7285" stroke="#0b7285" stroke-width="5"/>
   <path d="m620.25 697.57-82.921.1896-14.431.0316-13.168 14.11 96.739-.2212z" color="#000000" fill="#0b7285" stroke="#0b7285" stroke-width="4.7772"/>
   <g transform="translate(376.34 517.2)" fill="#f93c3c">
    <path d="m196.18 204.11-55.348.0114 10.126 16.8 3.8184.26286c.0591.1128 41.36-.0166 41.36-.0166z" color="#000000" fill="#f08c00" stroke="#f08c00" stroke-width="2"/>
   </g>
   <path d="m624.64 781.84-18.723-.0168-.004-20.753z" fill="#f08c00" stroke-linecap="square" stroke-width="4.1727"/>
   <path d="m574.67 660.64c-17.218-.003-33.553 7.7107-44.492 21.008l-6.3516 7.7226 26.959-.17946c.26685-.21941.5365-.43495.80886-.64657.27235-.21163.54742-.41935.8251-.62311.27769-.20377.55799-.40358.84083-.5994s.56821-.38764.85603-.57544c.28781-.18779.57807-.37154.87069-.55122s.58759-.35528.88483-.52677c.29724-.17148.59675-.33885.89844-.50205.30169-.16321.60556-.32225.91152-.47709.30596-.15485.61401-.30549.92406-.45189.31006-.1464.62212-.28855.93609-.42642.31398-.13787.62987-.27145.94758-.40071.31772-.12926.63726-.25419.95855-.37475.32128-.12056.6443-.23676.96897-.34854.32468-.11178.651-.21916.97889-.32208.32788-.10292.65733-.20139.98825-.29537.33093-.094.66332-.18346.99711-.2684.33378-.085.66895-.16536 1.0054-.2412.33647-.0758.67423-.1471 1.0132-.21374.33898-.0666.67916-.12866 1.0205-.18602.34131-.0574.68374-.11007 1.0272-.15807s.68796-.0913 1.0334-.12985c.34544-.0386.69183-.0724 1.0391-.10139.34724-.029.69534-.0533 1.0442-.0727s.69851-.034 1.0488-.0437c.35032-.01.70133-.0146 1.0529-.0145.35159 6e-5.70259.005 1.0529.0149.35031.01.69995.0245 1.0488.0441.34885.0195.69694.0439 1.0442.073s.6936.0631 1.039.10175c.34542.0387.68989.0821 1.0333.1302s.68584.10093 1.0271.15841c.34128.0575.68143.11961 1.0204.18637.33894.0667.67667.13812 1.0131.21407.33643.0759.67156.15648 1.0053.24154.33374.0851.66609.17465.99696.26874.33088.0941.66028.19267.98811.2957s.6541.21052.97872.32241.64758.22819.9688.34886c.32123.12067.64071.24571.95837.37508.31765.12936.63347.26305.94738.40103.31391.13797.6259.28023.93589.42673.30999.14651.61797.29725.92386.4522.30589.15494.60968.31409.9113.4774.30161.1633.60104.33077.89821.50235.29716.17159.59206.34729.8846.52707.29253.17977.58271.36363.87045.55151.28773.18789.57302.37981.85578.57573.28276.19591.56298.39582.84058.59968s.55258.41167.82485.62339c.27227.21171.54183.42734.80859.64684.26677.21949.53073.44285.79181.67004l26.17-.48298-6.3496-7.7246c-10.934-13.301-27.266-21.019-44.484-21.021z" color="#000000" fill="#f08c00" stroke-linecap="square" />
   <path d="m514.88 720.29 1.2578 10.013c3.1911 25.184 22.599 45.379 47.637 49.568l9.8633 1.6504-.10151-20.312-.91399-.13623-.61634-.10314-4.9307-.8252c-1.0259-.17164-2.0368-.38372-3.0312-.63455-.99438-.25082-1.9722-.54039-2.9318-.86702-.95963-.32662-1.9011-.6903-2.8227-1.0893-.92161-.39904-1.8234-.83343-2.7038-1.3015s-1.7392-.96976-2.575-1.5034-1.6485-1.0993-2.4366-1.6952c-.78801-.59592-1.5513-1.2221-2.2883-1.8769s-1.4476-1.3381-2.1302-2.0484c-.68265-.71023-1.3373-1.4473-1.9624-2.2096-.62508-.7623-1.2205-1.5498-1.7848-2.3608-.56423-.81098-1.0972-1.6455-1.5974-2.5017s-.96741-1.7343-1.4002-2.6325c-.43279-.89817-.83108-1.8164-1.1932-2.7531-.36217-.93668-.68821-1.8918-.9765-2.8636-.28829-.97181-.53882-1.9603-.74997-2.9639-.21115-1.0035-.38292-2.0221-.51367-3.054l-.0785-.62012-.0785-.62011-.2355-1.8604-.0785-.62011-.2355-1.8604-.0785-.62011-.0785-.62012-.0785-.7028z" color="#000000" fill="#f08c00" stroke-linecap="square" />
   <path d="m625.47 720.91-18.723.0154-.004 19.07z" fill="#f08c00" stroke-linecap="square" stroke-width="4"/>
  </g>
 </g>
</svg>